<svg xmlns="http://www.w3.org/2000/svg" xmlns:xlink="http://www.w3.org/1999/xlink" zoomAndPan="magnify" preserveAspectRatio="xMidYMid meet" version="1.0" viewBox="77.2 152.82 250.85 61.55"><defs><g></g><clipPath id="fbd6697f28"><path d="M 288.410156 156.308594 L 328.042969 156.308594 L 328.042969 202.800781 L 288.410156 202.800781 Z M 288.410156 156.308594 " clip-rule="nonzero"></path></clipPath></defs><g clip-path="url(#fbd6697f28)"><path fill="#ffffff" d="M 320.316406 200.726562 C 317.257812 200.726562 314.773438 198.242188 314.773438 195.183594 C 314.773438 194.472656 314.910156 193.789062 315.15625 193.160156 C 315.425781 192.472656 315.832031 191.847656 316.34375 191.324219 C 317.351562 190.289062 318.757812 189.640625 320.316406 189.640625 C 323.371094 189.640625 325.859375 192.128906 325.859375 195.183594 C 325.859375 198.242188 323.371094 200.726562 320.316406 200.726562 Z M 296.140625 185.152344 C 293.082031 185.152344 290.597656 182.667969 290.597656 179.613281 C 290.597656 176.554688 293.082031 174.070312 296.140625 174.070312 C 297.695312 174.070312 299.105469 174.714844 300.113281 175.75 C 300.621094 176.273438 301.027344 176.898438 301.300781 177.589844 C 301.546875 178.214844 301.683594 178.898438 301.683594 179.613281 C 301.683594 180.324219 301.546875 181.007812 301.300781 181.636719 C 301.027344 182.324219 300.621094 182.949219 300.113281 183.472656 C 299.105469 184.507812 297.695312 185.152344 296.140625 185.152344 Z M 314.773438 164.039062 C 314.773438 160.984375 317.257812 158.496094 320.316406 158.496094 C 323.371094 158.496094 325.859375 160.984375 325.859375 164.039062 C 325.859375 167.09375 323.371094 169.582031 320.316406 169.582031 C 318.757812 169.582031 317.351562 168.9375 316.34375 167.898438 C 315.832031 167.375 315.425781 166.753906 315.15625 166.0625 C 314.910156 165.433594 314.773438 164.753906 314.773438 164.039062 Z M 320.316406 187.457031 C 318.25 187.457031 316.3125 188.261719 314.851562 189.71875 C 314.71875 189.851562 314.59375 189.984375 314.476562 190.121094 L 303.167969 182.839844 C 303.625 181.839844 303.867188 180.742188 303.867188 179.613281 C 303.867188 178.480469 303.625 177.382812 303.167969 176.386719 L 314.476562 169.101562 C 314.59375 169.238281 314.71875 169.375 314.851562 169.503906 C 316.3125 170.964844 318.25 171.765625 320.316406 171.765625 C 322.378906 171.765625 324.320312 170.964844 325.78125 169.503906 C 327.242188 168.042969 328.042969 166.101562 328.042969 164.039062 C 328.042969 161.972656 327.242188 160.035156 325.78125 158.574219 C 324.320312 157.113281 322.378906 156.308594 320.316406 156.308594 C 318.25 156.308594 316.3125 157.113281 314.851562 158.574219 C 313.390625 160.035156 312.585938 161.972656 312.585938 164.039062 C 312.585938 165.171875 312.828125 166.265625 313.289062 167.265625 L 301.980469 174.550781 C 301.859375 174.410156 301.734375 174.277344 301.605469 174.148438 C 300.144531 172.6875 298.203125 171.882812 296.140625 171.882812 C 294.074219 171.882812 292.136719 172.6875 290.675781 174.148438 C 289.214844 175.605469 288.410156 177.546875 288.410156 179.613281 C 288.410156 181.675781 289.214844 183.617188 290.675781 185.078125 C 292.136719 186.535156 294.074219 187.339844 296.140625 187.339844 C 298.203125 187.339844 300.144531 186.535156 301.605469 185.078125 C 301.734375 184.945312 301.859375 184.8125 301.980469 184.675781 L 313.289062 191.957031 C 312.828125 192.957031 312.585938 194.050781 312.585938 195.183594 C 312.585938 197.25 313.390625 199.191406 314.851562 200.648438 C 316.3125 202.109375 318.25 202.914062 320.316406 202.914062 C 322.378906 202.914062 324.320312 202.109375 325.78125 200.648438 C 327.242188 199.191406 328.042969 197.25 328.042969 195.183594 C 328.042969 193.121094 327.242188 191.179688 325.78125 189.71875 C 324.320312 188.261719 322.378906 187.457031 320.316406 187.457031 " fill-opacity="1" fill-rule="nonzero"></path></g><g fill="#ffffff" fill-opacity="1"><g transform="translate(76.215014, 189.993518)"><g><path d="M 15.71875 -36.296875 C 17.65625 -36.296875 19.546875 -36.015625 21.390625 -35.453125 C 23.234375 -34.890625 24.597656 -34.332031 25.484375 -33.78125 L 26.78125 -32.921875 L 23.5 -26.4375 C 23.238281 -26.613281 22.878906 -26.835938 22.421875 -27.109375 C 21.960938 -27.378906 21.097656 -27.742188 19.828125 -28.203125 C 18.554688 -28.671875 17.375 -28.90625 16.28125 -28.90625 C 14.925781 -28.90625 13.878906 -28.613281 13.140625 -28.03125 C 12.410156 -27.457031 12.046875 -26.679688 12.046875 -25.703125 C 12.046875 -25.210938 12.21875 -24.757812 12.5625 -24.34375 C 12.914062 -23.925781 13.507812 -23.476562 14.34375 -23 C 15.175781 -22.53125 15.910156 -22.148438 16.546875 -21.859375 C 17.179688 -21.566406 18.160156 -21.132812 19.484375 -20.5625 C 21.785156 -19.582031 23.75 -18.25 25.375 -16.5625 C 27.007812 -14.882812 27.828125 -12.976562 27.828125 -10.84375 C 27.828125 -8.800781 27.457031 -7.015625 26.71875 -5.484375 C 25.988281 -3.960938 24.984375 -2.769531 23.703125 -1.90625 C 22.421875 -1.039062 21 -0.398438 19.4375 0.015625 C 17.882812 0.429688 16.203125 0.640625 14.390625 0.640625 C 12.828125 0.640625 11.296875 0.484375 9.796875 0.171875 C 8.304688 -0.140625 7.054688 -0.535156 6.046875 -1.015625 C 5.035156 -1.492188 4.125 -1.960938 3.3125 -2.421875 C 2.507812 -2.878906 1.925781 -3.265625 1.5625 -3.578125 L 1 -4.0625 L 5.0625 -10.890625 C 5.40625 -10.597656 5.878906 -10.226562 6.484375 -9.78125 C 7.085938 -9.332031 8.160156 -8.734375 9.703125 -7.984375 C 11.242188 -7.242188 12.601562 -6.875 13.78125 -6.875 C 17.207031 -6.875 18.921875 -8.039062 18.921875 -10.375 C 18.921875 -10.863281 18.796875 -11.316406 18.546875 -11.734375 C 18.304688 -12.148438 17.875 -12.566406 17.25 -12.984375 C 16.632812 -13.398438 16.085938 -13.726562 15.609375 -13.96875 C 15.140625 -14.21875 14.363281 -14.59375 13.28125 -15.09375 C 12.207031 -15.601562 11.410156 -15.988281 10.890625 -16.25 C 8.722656 -17.3125 7.050781 -18.640625 5.875 -20.234375 C 4.695312 -21.835938 4.109375 -23.5625 4.109375 -25.40625 C 4.109375 -28.601562 5.285156 -31.21875 7.640625 -33.25 C 10.003906 -35.28125 12.695312 -36.296875 15.71875 -36.296875 Z M 15.71875 -36.296875 "></path></g></g></g><g fill="#ffffff" fill-opacity="1"><g transform="translate(101.18796, 189.993518)"><g><path d="M 2.59375 0 L 2.59375 -37.15625 L 10.234375 -37.15625 L 10.234375 -19.828125 L 10.328125 -19.828125 C 12.316406 -21.816406 14.429688 -22.8125 16.671875 -22.8125 C 17.765625 -22.8125 18.851562 -22.664062 19.9375 -22.375 C 21.019531 -22.09375 22.054688 -21.644531 23.046875 -21.03125 C 24.046875 -20.425781 24.851562 -19.570312 25.46875 -18.46875 C 26.082031 -17.363281 26.390625 -16.078125 26.390625 -14.609375 L 26.390625 0 L 18.75 0 L 18.75 -12.53125 C 18.75 -13.675781 18.378906 -14.679688 17.640625 -15.546875 C 16.910156 -16.410156 15.957031 -16.84375 14.78125 -16.84375 C 13.625 -16.84375 12.578125 -16.394531 11.640625 -15.5 C 10.703125 -14.613281 10.234375 -13.625 10.234375 -12.53125 L 10.234375 0 Z M 2.59375 0 "></path></g></g></g><g fill="#ffffff" fill-opacity="1"><g transform="translate(125.685622, 189.993518)"><g><path d="M 4.109375 -2.75 C 2.035156 -5.007812 1 -7.78125 1 -11.0625 C 1 -14.34375 2.035156 -17.117188 4.109375 -19.390625 C 6.179688 -21.671875 8.816406 -22.8125 12.015625 -22.8125 C 14.953125 -22.8125 17.367188 -21.890625 19.265625 -20.046875 L 19.265625 -22.15625 L 26.921875 -22.15625 L 26.921875 0 L 19.359375 0 L 19.359375 -2.5 L 19.265625 -2.5 C 17.367188 -0.40625 14.953125 0.640625 12.015625 0.640625 C 8.816406 0.640625 6.179688 -0.488281 4.109375 -2.75 Z M 10.59375 -14.8125 C 9.601562 -13.832031 9.109375 -12.578125 9.109375 -11.046875 C 9.109375 -9.523438 9.582031 -8.28125 10.53125 -7.3125 C 11.488281 -6.351562 12.742188 -5.875 14.296875 -5.875 C 15.796875 -5.875 17.023438 -6.363281 17.984375 -7.34375 C 18.953125 -8.320312 19.4375 -9.5625 19.4375 -11.0625 C 19.4375 -12.582031 18.9375 -13.832031 17.9375 -14.8125 C 16.945312 -15.789062 15.734375 -16.28125 14.296875 -16.28125 C 12.828125 -16.28125 11.59375 -15.789062 10.59375 -14.8125 Z M 10.59375 -14.8125 "></path></g></g></g><g fill="#ffffff" fill-opacity="1"><g transform="translate(151.133842, 189.993518)"><g><path d="M 2.59375 0 L 2.59375 -22.15625 L 10.234375 -22.15625 L 10.234375 -18.96875 L 10.328125 -18.96875 C 10.378906 -19.082031 10.46875 -19.222656 10.59375 -19.390625 C 10.726562 -19.566406 11.007812 -19.867188 11.4375 -20.296875 C 11.875 -20.734375 12.335938 -21.125 12.828125 -21.46875 C 13.316406 -21.8125 13.953125 -22.117188 14.734375 -22.390625 C 15.515625 -22.671875 16.304688 -22.8125 17.109375 -22.8125 C 17.941406 -22.8125 18.757812 -22.695312 19.5625 -22.46875 C 20.375 -22.238281 20.96875 -22.007812 21.34375 -21.78125 L 21.953125 -21.421875 L 18.75 -14.953125 C 17.800781 -15.753906 16.476562 -16.15625 14.78125 -16.15625 C 13.851562 -16.15625 13.054688 -15.953125 12.390625 -15.546875 C 11.734375 -15.148438 11.265625 -14.660156 10.984375 -14.078125 C 10.710938 -13.503906 10.519531 -13.015625 10.40625 -12.609375 C 10.289062 -12.210938 10.234375 -11.898438 10.234375 -11.671875 L 10.234375 0 Z M 2.59375 0 "></path></g></g></g><g fill="#ffffff" fill-opacity="1"><g transform="translate(168.588765, 189.993518)"><g><path d="M 25.015625 -10.015625 L 8.9375 -10.015625 C 8.9375 -8.460938 9.441406 -7.3125 10.453125 -6.5625 C 11.460938 -5.8125 12.554688 -5.4375 13.734375 -5.4375 C 14.972656 -5.4375 15.953125 -5.601562 16.671875 -5.9375 C 17.390625 -6.269531 18.210938 -6.925781 19.140625 -7.90625 L 24.671875 -5.140625 C 22.367188 -1.285156 18.535156 0.640625 13.171875 0.640625 C 9.835938 0.640625 6.972656 -0.5 4.578125 -2.78125 C 2.191406 -5.070312 1 -7.832031 1 -11.0625 C 1 -14.289062 2.191406 -17.054688 4.578125 -19.359375 C 6.972656 -21.660156 9.835938 -22.8125 13.171875 -22.8125 C 16.691406 -22.8125 19.550781 -21.796875 21.75 -19.765625 C 23.957031 -17.734375 25.0625 -14.832031 25.0625 -11.0625 C 25.0625 -10.539062 25.046875 -10.191406 25.015625 -10.015625 Z M 9.15625 -14.25 L 17.578125 -14.25 C 17.410156 -15.40625 16.957031 -16.289062 16.21875 -16.90625 C 15.488281 -17.53125 14.546875 -17.84375 13.390625 -17.84375 C 12.117188 -17.84375 11.109375 -17.507812 10.359375 -16.84375 C 9.617188 -16.1875 9.21875 -15.320312 9.15625 -14.25 Z M 9.15625 -14.25 "></path></g></g></g><g fill="#ffffff" fill-opacity="1"><g transform="translate(190.580428, 189.993518)"><g><path d="M 4.109375 -2.75 C 2.035156 -5.007812 1 -7.78125 1 -11.0625 C 1 -14.34375 2.035156 -17.117188 4.109375 -19.390625 C 6.179688 -21.671875 8.816406 -22.8125 12.015625 -22.8125 C 14.953125 -22.8125 17.367188 -21.890625 19.265625 -20.046875 L 19.265625 -37.15625 L 26.921875 -37.15625 L 26.921875 0 L 19.359375 0 L 19.359375 -2.5 L 19.265625 -2.5 C 17.367188 -0.40625 14.953125 0.640625 12.015625 0.640625 C 8.816406 0.640625 6.179688 -0.488281 4.109375 -2.75 Z M 10.59375 -14.8125 C 9.601562 -13.832031 9.109375 -12.578125 9.109375 -11.046875 C 9.109375 -9.523438 9.582031 -8.28125 10.53125 -7.3125 C 11.488281 -6.351562 12.742188 -5.875 14.296875 -5.875 C 15.796875 -5.875 17.023438 -6.363281 17.984375 -7.34375 C 18.953125 -8.320312 19.4375 -9.5625 19.4375 -11.0625 C 19.4375 -12.582031 18.9375 -13.832031 17.9375 -14.8125 C 16.945312 -15.789062 15.734375 -16.28125 14.296875 -16.28125 C 12.828125 -16.28125 11.59375 -15.789062 10.59375 -14.8125 Z M 10.59375 -14.8125 "></path></g></g></g><g fill="#ffffff" fill-opacity="1"><g transform="translate(216.028642, 189.993518)"><g><path d="M 4.6875 -2.640625 C 2.226562 -4.828125 1 -7.632812 1 -11.0625 C 1 -14.488281 2.28125 -17.300781 4.84375 -19.5 C 7.40625 -21.707031 10.570312 -22.8125 14.34375 -22.8125 C 18.0625 -22.8125 21.191406 -21.703125 23.734375 -19.484375 C 26.285156 -17.265625 27.5625 -14.457031 27.5625 -11.0625 C 27.5625 -7.664062 26.316406 -4.863281 23.828125 -2.65625 C 21.335938 -0.457031 18.175781 0.640625 14.34375 0.640625 C 10.363281 0.640625 7.144531 -0.453125 4.6875 -2.640625 Z M 10.59375 -14.8125 C 9.601562 -13.832031 9.109375 -12.578125 9.109375 -11.046875 C 9.109375 -9.523438 9.582031 -8.28125 10.53125 -7.3125 C 11.488281 -6.351562 12.742188 -5.875 14.296875 -5.875 C 15.796875 -5.875 17.023438 -6.363281 17.984375 -7.34375 C 18.953125 -8.320312 19.4375 -9.5625 19.4375 -11.0625 C 19.4375 -12.582031 18.9375 -13.832031 17.9375 -14.8125 C 16.945312 -15.789062 15.734375 -16.28125 14.296875 -16.28125 C 12.828125 -16.28125 11.59375 -15.789062 10.59375 -14.8125 Z M 10.59375 -14.8125 "></path></g></g></g><g fill="#ffffff" fill-opacity="1"><g transform="translate(240.526299, 189.993518)"><g><path d="M 2.59375 0 L 2.59375 -22.15625 L 10.234375 -22.15625 L 10.234375 -19.828125 L 10.328125 -19.828125 C 12.316406 -21.816406 14.429688 -22.8125 16.671875 -22.8125 C 18.285156 -22.8125 19.796875 -22.476562 21.203125 -21.8125 C 22.617188 -21.15625 23.6875 -20.132812 24.40625 -18.75 C 26.65625 -21.457031 29.101562 -22.8125 31.75 -22.8125 C 34.113281 -22.8125 36.144531 -22.148438 37.84375 -20.828125 C 39.539062 -19.503906 40.390625 -17.429688 40.390625 -14.609375 L 40.390625 0 L 32.75 0 L 32.75 -12.53125 C 32.75 -13.707031 32.421875 -14.691406 31.765625 -15.484375 C 31.117188 -16.273438 30.148438 -16.671875 28.859375 -16.671875 C 27.734375 -16.671875 26.875 -16.332031 26.28125 -15.65625 C 25.695312 -14.976562 25.375 -14.164062 25.3125 -13.21875 L 25.3125 0 L 17.671875 0 L 17.671875 -12.53125 C 17.671875 -13.707031 17.34375 -14.691406 16.6875 -15.484375 C 16.039062 -16.273438 15.070312 -16.671875 13.78125 -16.671875 C 12.601562 -16.671875 11.71875 -16.300781 11.125 -15.5625 C 10.53125 -14.832031 10.234375 -13.960938 10.234375 -12.953125 L 10.234375 0 Z M 2.59375 0 "></path></g></g></g><g fill="#ffffff" fill-opacity="1"><g transform="translate(84.572885, 212.491349)"><g><path d="M 2.796875 0.09375 C 2.347656 0.09375 1.945312 0.0390625 1.59375 -0.0625 C 1.25 -0.175781 0.925781 -0.367188 0.625 -0.640625 C 0.457031 -0.785156 0.375 -0.953125 0.375 -1.140625 C 0.375 -1.273438 0.425781 -1.394531 0.53125 -1.5 C 0.632812 -1.613281 0.757812 -1.671875 0.90625 -1.671875 C 1.03125 -1.671875 1.140625 -1.632812 1.234375 -1.5625 C 1.472656 -1.351562 1.710938 -1.203125 1.953125 -1.109375 C 2.191406 -1.015625 2.472656 -0.96875 2.796875 -0.96875 C 3.140625 -0.96875 3.4375 -1.046875 3.6875 -1.203125 C 3.9375 -1.359375 4.0625 -1.550781 4.0625 -1.78125 C 4.0625 -2.0625 3.9375 -2.28125 3.6875 -2.4375 C 3.4375 -2.59375 3.046875 -2.710938 2.515625 -2.796875 C 1.148438 -2.992188 0.46875 -3.625 0.46875 -4.6875 C 0.46875 -5.082031 0.570312 -5.421875 0.78125 -5.703125 C 0.988281 -5.992188 1.265625 -6.210938 1.609375 -6.359375 C 1.960938 -6.515625 2.359375 -6.59375 2.796875 -6.59375 C 3.191406 -6.59375 3.5625 -6.535156 3.90625 -6.421875 C 4.25 -6.304688 4.535156 -6.148438 4.765625 -5.953125 C 4.941406 -5.816406 5.03125 -5.65625 5.03125 -5.46875 C 5.03125 -5.320312 4.976562 -5.191406 4.875 -5.078125 C 4.769531 -4.972656 4.644531 -4.921875 4.5 -4.921875 C 4.40625 -4.921875 4.320312 -4.953125 4.25 -5.015625 C 4.082031 -5.140625 3.851562 -5.253906 3.5625 -5.359375 C 3.28125 -5.472656 3.023438 -5.53125 2.796875 -5.53125 C 2.410156 -5.53125 2.109375 -5.457031 1.890625 -5.3125 C 1.679688 -5.164062 1.578125 -4.972656 1.578125 -4.734375 C 1.578125 -4.472656 1.6875 -4.273438 1.90625 -4.140625 C 2.125 -4.003906 2.46875 -3.890625 2.9375 -3.796875 C 3.46875 -3.703125 3.890625 -3.582031 4.203125 -3.4375 C 4.523438 -3.289062 4.765625 -3.09375 4.921875 -2.84375 C 5.085938 -2.59375 5.171875 -2.257812 5.171875 -1.84375 C 5.171875 -1.457031 5.0625 -1.113281 4.84375 -0.8125 C 4.625 -0.519531 4.332031 -0.296875 3.96875 -0.140625 C 3.601562 0.015625 3.210938 0.09375 2.796875 0.09375 Z M 2.796875 0.09375 "></path></g></g></g><g fill="#ffffff" fill-opacity="1"><g transform="translate(93.825051, 212.491349)"><g><path d="M 3.21875 -5.0625 C 3.832031 -5.0625 4.253906 -4.875 4.484375 -4.5 C 4.722656 -4.125 4.84375 -3.609375 4.84375 -2.953125 L 4.84375 -0.5625 C 4.84375 -0.40625 4.789062 -0.269531 4.6875 -0.15625 C 4.582031 -0.0507812 4.445312 0 4.28125 0 C 4.125 0 3.992188 -0.0507812 3.890625 -0.15625 C 3.785156 -0.269531 3.734375 -0.40625 3.734375 -0.5625 L 3.734375 -2.953125 C 3.734375 -3.285156 3.664062 -3.550781 3.53125 -3.75 C 3.394531 -3.945312 3.160156 -4.046875 2.828125 -4.046875 C 2.484375 -4.046875 2.210938 -3.941406 2.015625 -3.734375 C 1.816406 -3.523438 1.71875 -3.265625 1.71875 -2.953125 L 1.71875 -0.5625 C 1.71875 -0.40625 1.664062 -0.269531 1.5625 -0.15625 C 1.457031 -0.0507812 1.320312 0 1.15625 0 C 1 0 0.867188 -0.0507812 0.765625 -0.15625 C 0.660156 -0.269531 0.609375 -0.40625 0.609375 -0.5625 L 0.609375 -6.3125 C 0.609375 -6.46875 0.660156 -6.597656 0.765625 -6.703125 C 0.867188 -6.816406 1 -6.875 1.15625 -6.875 C 1.320312 -6.875 1.457031 -6.816406 1.5625 -6.703125 C 1.664062 -6.597656 1.71875 -6.46875 1.71875 -6.3125 L 1.71875 -4.265625 C 1.882812 -4.484375 2.097656 -4.671875 2.359375 -4.828125 C 2.617188 -4.984375 2.90625 -5.0625 3.21875 -5.0625 Z M 3.21875 -5.0625 "></path></g></g></g><g fill="#ffffff" fill-opacity="1"><g transform="translate(102.974987, 212.491349)"><g><path d="M 4.625 -5.0625 C 4.789062 -5.0625 4.925781 -5.007812 5.03125 -4.90625 C 5.132812 -4.800781 5.1875 -4.664062 5.1875 -4.5 L 5.1875 -0.5625 C 5.1875 -0.40625 5.132812 -0.269531 5.03125 -0.15625 C 4.925781 -0.0507812 4.789062 0 4.625 0 C 4.46875 0 4.335938 -0.0507812 4.234375 -0.15625 C 4.128906 -0.257812 4.078125 -0.394531 4.078125 -0.5625 C 3.921875 -0.375 3.707031 -0.21875 3.4375 -0.09375 C 3.175781 0.03125 2.898438 0.09375 2.609375 0.09375 C 2.179688 0.09375 1.796875 -0.015625 1.453125 -0.234375 C 1.109375 -0.453125 0.832031 -0.753906 0.625 -1.140625 C 0.425781 -1.535156 0.328125 -1.984375 0.328125 -2.484375 C 0.328125 -2.972656 0.425781 -3.414062 0.625 -3.8125 C 0.820312 -4.207031 1.09375 -4.515625 1.4375 -4.734375 C 1.78125 -4.953125 2.160156 -5.0625 2.578125 -5.0625 C 2.867188 -5.0625 3.144531 -5.003906 3.40625 -4.890625 C 3.664062 -4.785156 3.890625 -4.648438 4.078125 -4.484375 L 4.078125 -4.5 C 4.078125 -4.65625 4.128906 -4.785156 4.234375 -4.890625 C 4.335938 -5.003906 4.46875 -5.0625 4.625 -5.0625 Z M 2.75 -0.9375 C 3.15625 -0.9375 3.484375 -1.082031 3.734375 -1.375 C 3.992188 -1.664062 4.125 -2.035156 4.125 -2.484375 C 4.125 -2.929688 3.992188 -3.300781 3.734375 -3.59375 C 3.484375 -3.894531 3.15625 -4.046875 2.75 -4.046875 C 2.351562 -4.046875 2.023438 -3.894531 1.765625 -3.59375 C 1.515625 -3.300781 1.390625 -2.929688 1.390625 -2.484375 C 1.390625 -2.035156 1.515625 -1.664062 1.765625 -1.375 C 2.015625 -1.082031 2.34375 -0.9375 2.75 -0.9375 Z M 2.75 -0.9375 "></path></g></g></g><g fill="#ffffff" fill-opacity="1"><g transform="translate(112.468761, 212.491349)"><g><path d="M 3.1875 -5.0625 C 3.375 -5.0625 3.53125 -5.007812 3.65625 -4.90625 C 3.78125 -4.800781 3.84375 -4.675781 3.84375 -4.53125 C 3.84375 -4.34375 3.789062 -4.195312 3.6875 -4.09375 C 3.59375 -4 3.476562 -3.953125 3.34375 -3.953125 C 3.25 -3.953125 3.144531 -3.976562 3.03125 -4.03125 C 3.007812 -4.03125 2.96875 -4.039062 2.90625 -4.0625 C 2.84375 -4.082031 2.773438 -4.09375 2.703125 -4.09375 C 2.535156 -4.09375 2.378906 -4.039062 2.234375 -3.9375 C 2.085938 -3.84375 1.960938 -3.691406 1.859375 -3.484375 C 1.765625 -3.285156 1.71875 -3.046875 1.71875 -2.765625 L 1.71875 -0.5625 C 1.71875 -0.40625 1.664062 -0.269531 1.5625 -0.15625 C 1.457031 -0.0507812 1.320312 0 1.15625 0 C 1 0 0.867188 -0.0507812 0.765625 -0.15625 C 0.660156 -0.269531 0.609375 -0.40625 0.609375 -0.5625 L 0.609375 -4.40625 C 0.609375 -4.570312 0.660156 -4.707031 0.765625 -4.8125 C 0.867188 -4.914062 1 -4.96875 1.15625 -4.96875 C 1.320312 -4.96875 1.457031 -4.914062 1.5625 -4.8125 C 1.664062 -4.707031 1.71875 -4.570312 1.71875 -4.40625 L 1.71875 -4.28125 C 1.863281 -4.539062 2.066406 -4.734375 2.328125 -4.859375 C 2.597656 -4.992188 2.882812 -5.0625 3.1875 -5.0625 Z M 3.1875 -5.0625 "></path></g></g></g><g fill="#ffffff" fill-opacity="1"><g transform="translate(120.206176, 212.491349)"><g><path d="M 5.0625 -2.609375 C 5.0625 -2.453125 5.003906 -2.328125 4.890625 -2.234375 C 4.773438 -2.140625 4.644531 -2.09375 4.5 -2.09375 L 1.4375 -2.09375 C 1.507812 -1.726562 1.675781 -1.441406 1.9375 -1.234375 C 2.207031 -1.035156 2.507812 -0.9375 2.84375 -0.9375 C 3.09375 -0.9375 3.289062 -0.957031 3.4375 -1 C 3.582031 -1.039062 3.695312 -1.085938 3.78125 -1.140625 C 3.863281 -1.203125 3.921875 -1.238281 3.953125 -1.25 C 4.066406 -1.3125 4.171875 -1.34375 4.265625 -1.34375 C 4.398438 -1.34375 4.507812 -1.296875 4.59375 -1.203125 C 4.6875 -1.109375 4.734375 -1 4.734375 -0.875 C 4.734375 -0.707031 4.648438 -0.554688 4.484375 -0.421875 C 4.304688 -0.273438 4.070312 -0.148438 3.78125 -0.046875 C 3.488281 0.046875 3.195312 0.09375 2.90625 0.09375 C 2.382812 0.09375 1.925781 -0.015625 1.53125 -0.234375 C 1.144531 -0.453125 0.847656 -0.75 0.640625 -1.125 C 0.429688 -1.507812 0.328125 -1.941406 0.328125 -2.421875 C 0.328125 -2.953125 0.4375 -3.414062 0.65625 -3.8125 C 0.882812 -4.21875 1.179688 -4.523438 1.546875 -4.734375 C 1.910156 -4.953125 2.300781 -5.0625 2.71875 -5.0625 C 3.125 -5.0625 3.507812 -4.945312 3.875 -4.71875 C 4.238281 -4.5 4.523438 -4.203125 4.734375 -3.828125 C 4.953125 -3.453125 5.0625 -3.046875 5.0625 -2.609375 Z M 2.71875 -4.046875 C 2 -4.046875 1.570312 -3.707031 1.4375 -3.03125 L 3.875 -3.03125 L 3.875 -3.09375 C 3.851562 -3.351562 3.726562 -3.578125 3.5 -3.765625 C 3.269531 -3.953125 3.007812 -4.046875 2.71875 -4.046875 Z M 2.71875 -4.046875 "></path></g></g></g><g fill="#ffffff" fill-opacity="1"><g transform="translate(129.300358, 212.491349)"><g></g></g></g><g fill="#ffffff" fill-opacity="1"><g transform="translate(135.606653, 212.491349)"><g><path d="M 4.625 -5.0625 C 4.789062 -5.0625 4.925781 -5.007812 5.03125 -4.90625 C 5.132812 -4.800781 5.1875 -4.664062 5.1875 -4.5 L 5.1875 -0.5625 C 5.1875 -0.40625 5.132812 -0.269531 5.03125 -0.15625 C 4.925781 -0.0507812 4.789062 0 4.625 0 C 4.46875 0 4.335938 -0.0507812 4.234375 -0.15625 C 4.128906 -0.257812 4.078125 -0.394531 4.078125 -0.5625 C 3.921875 -0.375 3.707031 -0.21875 3.4375 -0.09375 C 3.175781 0.03125 2.898438 0.09375 2.609375 0.09375 C 2.179688 0.09375 1.796875 -0.015625 1.453125 -0.234375 C 1.109375 -0.453125 0.832031 -0.753906 0.625 -1.140625 C 0.425781 -1.535156 0.328125 -1.984375 0.328125 -2.484375 C 0.328125 -2.972656 0.425781 -3.414062 0.625 -3.8125 C 0.820312 -4.207031 1.09375 -4.515625 1.4375 -4.734375 C 1.78125 -4.953125 2.160156 -5.0625 2.578125 -5.0625 C 2.867188 -5.0625 3.144531 -5.003906 3.40625 -4.890625 C 3.664062 -4.785156 3.890625 -4.648438 4.078125 -4.484375 L 4.078125 -4.5 C 4.078125 -4.65625 4.128906 -4.785156 4.234375 -4.890625 C 4.335938 -5.003906 4.46875 -5.0625 4.625 -5.0625 Z M 2.75 -0.9375 C 3.15625 -0.9375 3.484375 -1.082031 3.734375 -1.375 C 3.992188 -1.664062 4.125 -2.035156 4.125 -2.484375 C 4.125 -2.929688 3.992188 -3.300781 3.734375 -3.59375 C 3.484375 -3.894531 3.15625 -4.046875 2.75 -4.046875 C 2.351562 -4.046875 2.023438 -3.894531 1.765625 -3.59375 C 1.515625 -3.300781 1.390625 -2.929688 1.390625 -2.484375 C 1.390625 -2.035156 1.515625 -1.664062 1.765625 -1.375 C 2.015625 -1.082031 2.34375 -0.9375 2.75 -0.9375 Z M 2.75 -0.9375 "></path></g></g></g><g fill="#ffffff" fill-opacity="1"><g transform="translate(145.100425, 212.491349)"><g><path d="M 3.265625 -5.0625 C 3.898438 -5.0625 4.335938 -4.875 4.578125 -4.5 C 4.816406 -4.125 4.9375 -3.609375 4.9375 -2.953125 L 4.9375 -0.5625 C 4.9375 -0.40625 4.882812 -0.269531 4.78125 -0.15625 C 4.675781 -0.0507812 4.539062 0 4.375 0 C 4.21875 0 4.085938 -0.0507812 3.984375 -0.15625 C 3.878906 -0.269531 3.828125 -0.40625 3.828125 -0.5625 L 3.828125 -2.953125 C 3.828125 -3.285156 3.753906 -3.550781 3.609375 -3.75 C 3.460938 -3.945312 3.21875 -4.046875 2.875 -4.046875 C 2.507812 -4.046875 2.222656 -3.941406 2.015625 -3.734375 C 1.816406 -3.523438 1.71875 -3.265625 1.71875 -2.953125 L 1.71875 -0.5625 C 1.71875 -0.40625 1.664062 -0.269531 1.5625 -0.15625 C 1.457031 -0.0507812 1.320312 0 1.15625 0 C 1 0 0.867188 -0.0507812 0.765625 -0.15625 C 0.660156 -0.269531 0.609375 -0.40625 0.609375 -0.5625 L 0.609375 -4.40625 C 0.609375 -4.570312 0.660156 -4.707031 0.765625 -4.8125 C 0.867188 -4.914062 1 -4.96875 1.15625 -4.96875 C 1.320312 -4.96875 1.457031 -4.914062 1.5625 -4.8125 C 1.664062 -4.707031 1.71875 -4.570312 1.71875 -4.40625 L 1.71875 -4.25 C 1.882812 -4.46875 2.101562 -4.65625 2.375 -4.8125 C 2.644531 -4.976562 2.941406 -5.0625 3.265625 -5.0625 Z M 3.265625 -5.0625 "></path></g></g></g><g fill="#ffffff" fill-opacity="1"><g transform="translate(154.343296, 212.491349)"><g><path d="M 4.625 -6.875 C 4.789062 -6.875 4.925781 -6.820312 5.03125 -6.71875 C 5.132812 -6.613281 5.1875 -6.476562 5.1875 -6.3125 L 5.1875 -0.5625 C 5.1875 -0.40625 5.132812 -0.269531 5.03125 -0.15625 C 4.925781 -0.0507812 4.789062 0 4.625 0 C 4.46875 0 4.335938 -0.0507812 4.234375 -0.15625 C 4.128906 -0.257812 4.078125 -0.394531 4.078125 -0.5625 C 3.921875 -0.375 3.707031 -0.21875 3.4375 -0.09375 C 3.175781 0.03125 2.898438 0.09375 2.609375 0.09375 C 2.179688 0.09375 1.796875 -0.015625 1.453125 -0.234375 C 1.109375 -0.453125 0.832031 -0.753906 0.625 -1.140625 C 0.425781 -1.535156 0.328125 -1.984375 0.328125 -2.484375 C 0.328125 -2.972656 0.425781 -3.414062 0.625 -3.8125 C 0.820312 -4.207031 1.09375 -4.515625 1.4375 -4.734375 C 1.78125 -4.953125 2.160156 -5.0625 2.578125 -5.0625 C 2.867188 -5.0625 3.144531 -5.003906 3.40625 -4.890625 C 3.664062 -4.785156 3.890625 -4.648438 4.078125 -4.484375 L 4.078125 -6.3125 C 4.078125 -6.46875 4.128906 -6.597656 4.234375 -6.703125 C 4.335938 -6.816406 4.46875 -6.875 4.625 -6.875 Z M 2.75 -0.9375 C 3.15625 -0.9375 3.484375 -1.082031 3.734375 -1.375 C 3.992188 -1.664062 4.125 -2.035156 4.125 -2.484375 C 4.125 -2.929688 3.992188 -3.300781 3.734375 -3.59375 C 3.484375 -3.894531 3.15625 -4.046875 2.75 -4.046875 C 2.351562 -4.046875 2.023438 -3.894531 1.765625 -3.59375 C 1.515625 -3.300781 1.390625 -2.929688 1.390625 -2.484375 C 1.390625 -2.035156 1.515625 -1.664062 1.765625 -1.375 C 2.015625 -1.082031 2.34375 -0.9375 2.75 -0.9375 Z M 2.75 -0.9375 "></path></g></g></g><g fill="#ffffff" fill-opacity="1"><g transform="translate(163.837068, 212.491349)"><g></g></g></g><g fill="#ffffff" fill-opacity="1"><g transform="translate(170.143363, 212.491349)"><g><path d="M 0.3125 -0.765625 C 0.257812 -0.847656 0.234375 -0.941406 0.234375 -1.046875 C 0.234375 -1.210938 0.3125 -1.347656 0.46875 -1.453125 C 0.5625 -1.515625 0.65625 -1.546875 0.75 -1.546875 C 0.875 -1.546875 0.992188 -1.484375 1.109375 -1.359375 C 1.296875 -1.171875 1.488281 -1.03125 1.6875 -0.9375 C 1.894531 -0.84375 2.140625 -0.796875 2.421875 -0.796875 C 2.910156 -0.816406 3.15625 -1 3.15625 -1.34375 C 3.15625 -1.53125 3.070312 -1.664062 2.90625 -1.75 C 2.738281 -1.84375 2.484375 -1.9375 2.140625 -2.03125 C 1.773438 -2.132812 1.476562 -2.234375 1.25 -2.328125 C 1.03125 -2.429688 0.835938 -2.582031 0.671875 -2.78125 C 0.503906 -2.988281 0.421875 -3.257812 0.421875 -3.59375 C 0.421875 -3.894531 0.503906 -4.15625 0.671875 -4.375 C 0.847656 -4.59375 1.070312 -4.757812 1.34375 -4.875 C 1.625 -5 1.921875 -5.0625 2.234375 -5.0625 C 2.546875 -5.0625 2.859375 -5.003906 3.171875 -4.890625 C 3.492188 -4.773438 3.742188 -4.601562 3.921875 -4.375 C 4.003906 -4.269531 4.046875 -4.15625 4.046875 -4.03125 C 4.046875 -3.894531 3.988281 -3.78125 3.875 -3.6875 C 3.78125 -3.613281 3.675781 -3.578125 3.5625 -3.578125 C 3.425781 -3.578125 3.316406 -3.617188 3.234375 -3.703125 C 3.117188 -3.835938 2.972656 -3.945312 2.796875 -4.03125 C 2.617188 -4.113281 2.421875 -4.15625 2.203125 -4.15625 C 1.734375 -4.15625 1.5 -3.984375 1.5 -3.640625 C 1.5 -3.503906 1.539062 -3.394531 1.625 -3.3125 C 1.707031 -3.226562 1.816406 -3.160156 1.953125 -3.109375 C 2.085938 -3.066406 2.273438 -3.015625 2.515625 -2.953125 C 2.847656 -2.859375 3.125 -2.757812 3.34375 -2.65625 C 3.570312 -2.5625 3.765625 -2.410156 3.921875 -2.203125 C 4.078125 -1.992188 4.15625 -1.722656 4.15625 -1.390625 C 4.15625 -1.085938 4.0625 -0.820312 3.875 -0.59375 C 3.695312 -0.375 3.46875 -0.203125 3.1875 -0.078125 C 2.90625 0.0351562 2.617188 0.09375 2.328125 0.09375 C 1.910156 0.09375 1.523438 0.0234375 1.171875 -0.109375 C 0.828125 -0.242188 0.539062 -0.460938 0.3125 -0.765625 Z M 0.3125 -0.765625 "></path></g></g></g><g fill="#ffffff" fill-opacity="1"><g transform="translate(178.326832, 212.491349)"><g><path d="M 3 -1.046875 C 3.09375 -1.046875 3.171875 -1.003906 3.234375 -0.921875 C 3.304688 -0.835938 3.34375 -0.726562 3.34375 -0.59375 C 3.34375 -0.425781 3.25 -0.285156 3.0625 -0.171875 C 2.882812 -0.0546875 2.679688 0 2.453125 0 C 2.066406 0 1.742188 -0.0820312 1.484375 -0.25 C 1.222656 -0.414062 1.09375 -0.765625 1.09375 -1.296875 L 1.09375 -3.859375 L 0.65625 -3.859375 C 0.507812 -3.859375 0.382812 -3.90625 0.28125 -4 C 0.1875 -4.101562 0.140625 -4.226562 0.140625 -4.375 C 0.140625 -4.519531 0.1875 -4.640625 0.28125 -4.734375 C 0.382812 -4.828125 0.507812 -4.875 0.65625 -4.875 L 1.09375 -4.875 L 1.09375 -5.46875 C 1.09375 -5.632812 1.144531 -5.769531 1.25 -5.875 C 1.351562 -5.988281 1.488281 -6.046875 1.65625 -6.046875 C 1.8125 -6.046875 1.941406 -5.988281 2.046875 -5.875 C 2.148438 -5.769531 2.203125 -5.632812 2.203125 -5.46875 L 2.203125 -4.875 L 2.859375 -4.875 C 3.015625 -4.875 3.140625 -4.820312 3.234375 -4.71875 C 3.335938 -4.625 3.390625 -4.503906 3.390625 -4.359375 C 3.390625 -4.210938 3.335938 -4.09375 3.234375 -4 C 3.140625 -3.90625 3.015625 -3.859375 2.859375 -3.859375 L 2.203125 -3.859375 L 2.203125 -1.34375 C 2.203125 -1.207031 2.234375 -1.109375 2.296875 -1.046875 C 2.367188 -0.992188 2.460938 -0.96875 2.578125 -0.96875 C 2.628906 -0.96875 2.703125 -0.976562 2.796875 -1 C 2.867188 -1.03125 2.9375 -1.046875 3 -1.046875 Z M 3 -1.046875 "></path></g></g></g><g fill="#ffffff" fill-opacity="1"><g transform="translate(185.831919, 212.491349)"><g><path d="M 5.390625 -2.484375 C 5.390625 -1.984375 5.273438 -1.535156 5.046875 -1.140625 C 4.828125 -0.753906 4.519531 -0.453125 4.125 -0.234375 C 3.738281 -0.015625 3.316406 0.09375 2.859375 0.09375 C 2.378906 0.09375 1.945312 -0.015625 1.5625 -0.234375 C 1.1875 -0.453125 0.882812 -0.753906 0.65625 -1.140625 C 0.4375 -1.535156 0.328125 -1.984375 0.328125 -2.484375 C 0.328125 -2.972656 0.4375 -3.414062 0.65625 -3.8125 C 0.882812 -4.207031 1.1875 -4.515625 1.5625 -4.734375 C 1.945312 -4.953125 2.378906 -5.0625 2.859375 -5.0625 C 3.316406 -5.0625 3.738281 -4.953125 4.125 -4.734375 C 4.519531 -4.515625 4.828125 -4.207031 5.046875 -3.8125 C 5.273438 -3.414062 5.390625 -2.972656 5.390625 -2.484375 Z M 4.265625 -2.484375 C 4.265625 -2.785156 4.203125 -3.054688 4.078125 -3.296875 C 3.953125 -3.535156 3.78125 -3.71875 3.5625 -3.84375 C 3.351562 -3.976562 3.117188 -4.046875 2.859375 -4.046875 C 2.597656 -4.046875 2.359375 -3.976562 2.140625 -3.84375 C 1.929688 -3.71875 1.757812 -3.535156 1.625 -3.296875 C 1.5 -3.054688 1.4375 -2.785156 1.4375 -2.484375 C 1.4375 -2.179688 1.5 -1.910156 1.625 -1.671875 C 1.757812 -1.429688 1.929688 -1.25 2.140625 -1.125 C 2.359375 -1 2.597656 -0.9375 2.859375 -0.9375 C 3.117188 -0.9375 3.351562 -1 3.5625 -1.125 C 3.78125 -1.25 3.953125 -1.429688 4.078125 -1.671875 C 4.203125 -1.910156 4.265625 -2.179688 4.265625 -2.484375 Z M 4.265625 -2.484375 "></path></g></g></g><g fill="#ffffff" fill-opacity="1"><g transform="translate(195.242063, 212.491349)"><g><path d="M 3.1875 -5.0625 C 3.375 -5.0625 3.53125 -5.007812 3.65625 -4.90625 C 3.78125 -4.800781 3.84375 -4.675781 3.84375 -4.53125 C 3.84375 -4.34375 3.789062 -4.195312 3.6875 -4.09375 C 3.59375 -4 3.476562 -3.953125 3.34375 -3.953125 C 3.25 -3.953125 3.144531 -3.976562 3.03125 -4.03125 C 3.007812 -4.03125 2.96875 -4.039062 2.90625 -4.0625 C 2.84375 -4.082031 2.773438 -4.09375 2.703125 -4.09375 C 2.535156 -4.09375 2.378906 -4.039062 2.234375 -3.9375 C 2.085938 -3.84375 1.960938 -3.691406 1.859375 -3.484375 C 1.765625 -3.285156 1.71875 -3.046875 1.71875 -2.765625 L 1.71875 -0.5625 C 1.71875 -0.40625 1.664062 -0.269531 1.5625 -0.15625 C 1.457031 -0.0507812 1.320312 0 1.15625 0 C 1 0 0.867188 -0.0507812 0.765625 -0.15625 C 0.660156 -0.269531 0.609375 -0.40625 0.609375 -0.5625 L 0.609375 -4.40625 C 0.609375 -4.570312 0.660156 -4.707031 0.765625 -4.8125 C 0.867188 -4.914062 1 -4.96875 1.15625 -4.96875 C 1.320312 -4.96875 1.457031 -4.914062 1.5625 -4.8125 C 1.664062 -4.707031 1.71875 -4.570312 1.71875 -4.40625 L 1.71875 -4.28125 C 1.863281 -4.539062 2.066406 -4.734375 2.328125 -4.859375 C 2.597656 -4.992188 2.882812 -5.0625 3.1875 -5.0625 Z M 3.1875 -5.0625 "></path></g></g></g><g fill="#ffffff" fill-opacity="1"><g transform="translate(202.979482, 212.491349)"><g><path d="M 5.0625 -2.609375 C 5.0625 -2.453125 5.003906 -2.328125 4.890625 -2.234375 C 4.773438 -2.140625 4.644531 -2.09375 4.5 -2.09375 L 1.4375 -2.09375 C 1.507812 -1.726562 1.675781 -1.441406 1.9375 -1.234375 C 2.207031 -1.035156 2.507812 -0.9375 2.84375 -0.9375 C 3.09375 -0.9375 3.289062 -0.957031 3.4375 -1 C 3.582031 -1.039062 3.695312 -1.085938 3.78125 -1.140625 C 3.863281 -1.203125 3.921875 -1.238281 3.953125 -1.25 C 4.066406 -1.3125 4.171875 -1.34375 4.265625 -1.34375 C 4.398438 -1.34375 4.507812 -1.296875 4.59375 -1.203125 C 4.6875 -1.109375 4.734375 -1 4.734375 -0.875 C 4.734375 -0.707031 4.648438 -0.554688 4.484375 -0.421875 C 4.304688 -0.273438 4.070312 -0.148438 3.78125 -0.046875 C 3.488281 0.046875 3.195312 0.09375 2.90625 0.09375 C 2.382812 0.09375 1.925781 -0.015625 1.53125 -0.234375 C 1.144531 -0.453125 0.847656 -0.75 0.640625 -1.125 C 0.429688 -1.507812 0.328125 -1.941406 0.328125 -2.421875 C 0.328125 -2.953125 0.4375 -3.414062 0.65625 -3.8125 C 0.882812 -4.21875 1.179688 -4.523438 1.546875 -4.734375 C 1.910156 -4.953125 2.300781 -5.0625 2.71875 -5.0625 C 3.125 -5.0625 3.507812 -4.945312 3.875 -4.71875 C 4.238281 -4.5 4.523438 -4.203125 4.734375 -3.828125 C 4.953125 -3.453125 5.0625 -3.046875 5.0625 -2.609375 Z M 2.71875 -4.046875 C 2 -4.046875 1.570312 -3.707031 1.4375 -3.03125 L 3.875 -3.03125 L 3.875 -3.09375 C 3.851562 -3.351562 3.726562 -3.578125 3.5 -3.765625 C 3.269531 -3.953125 3.007812 -4.046875 2.71875 -4.046875 Z M 2.71875 -4.046875 "></path></g></g></g><g fill="#ffffff" fill-opacity="1"><g transform="translate(212.073666, 212.491349)"><g></g></g></g><g fill="#ffffff" fill-opacity="1"><g transform="translate(218.379967, 212.491349)"><g><path d="M 4.296875 -4.96875 C 4.453125 -4.96875 4.582031 -4.914062 4.6875 -4.8125 C 4.800781 -4.707031 4.859375 -4.570312 4.859375 -4.40625 L 4.859375 -0.453125 C 4.859375 0.347656 4.640625 0.929688 4.203125 1.296875 C 3.765625 1.671875 3.1875 1.859375 2.46875 1.859375 C 2.25 1.859375 2.03125 1.835938 1.8125 1.796875 C 1.59375 1.765625 1.414062 1.722656 1.28125 1.671875 C 0.976562 1.546875 0.828125 1.367188 0.828125 1.140625 C 0.828125 1.085938 0.835938 1.035156 0.859375 0.984375 C 0.890625 0.847656 0.953125 0.742188 1.046875 0.671875 C 1.140625 0.597656 1.238281 0.5625 1.34375 0.5625 C 1.40625 0.5625 1.460938 0.570312 1.515625 0.59375 C 1.554688 0.613281 1.628906 0.644531 1.734375 0.6875 C 1.847656 0.726562 1.960938 0.765625 2.078125 0.796875 C 2.203125 0.828125 2.332031 0.84375 2.46875 0.84375 C 2.90625 0.84375 3.226562 0.742188 3.4375 0.546875 C 3.644531 0.359375 3.75 0.0351562 3.75 -0.421875 L 3.75 -0.515625 C 3.425781 -0.109375 2.921875 0.09375 2.234375 0.09375 C 1.910156 0.09375 1.625 0.0195312 1.375 -0.125 C 1.132812 -0.28125 0.945312 -0.492188 0.8125 -0.765625 C 0.675781 -1.035156 0.609375 -1.34375 0.609375 -1.6875 L 0.609375 -4.40625 C 0.609375 -4.570312 0.660156 -4.707031 0.765625 -4.8125 C 0.867188 -4.914062 1 -4.96875 1.15625 -4.96875 C 1.320312 -4.96875 1.457031 -4.914062 1.5625 -4.8125 C 1.664062 -4.707031 1.71875 -4.570312 1.71875 -4.40625 L 1.71875 -2.03125 C 1.71875 -1.632812 1.800781 -1.351562 1.96875 -1.1875 C 2.144531 -1.019531 2.394531 -0.9375 2.71875 -0.9375 C 3.039062 -0.9375 3.289062 -1.03125 3.46875 -1.21875 C 3.644531 -1.40625 3.734375 -1.675781 3.734375 -2.03125 L 3.734375 -4.40625 C 3.734375 -4.570312 3.785156 -4.707031 3.890625 -4.8125 C 3.992188 -4.914062 4.128906 -4.96875 4.296875 -4.96875 Z M 4.296875 -4.96875 "></path></g></g></g><g fill="#ffffff" fill-opacity="1"><g transform="translate(227.539199, 212.491349)"><g><path d="M 5.390625 -2.484375 C 5.390625 -1.984375 5.273438 -1.535156 5.046875 -1.140625 C 4.828125 -0.753906 4.519531 -0.453125 4.125 -0.234375 C 3.738281 -0.015625 3.316406 0.09375 2.859375 0.09375 C 2.378906 0.09375 1.945312 -0.015625 1.5625 -0.234375 C 1.1875 -0.453125 0.882812 -0.753906 0.65625 -1.140625 C 0.4375 -1.535156 0.328125 -1.984375 0.328125 -2.484375 C 0.328125 -2.972656 0.4375 -3.414062 0.65625 -3.8125 C 0.882812 -4.207031 1.1875 -4.515625 1.5625 -4.734375 C 1.945312 -4.953125 2.378906 -5.0625 2.859375 -5.0625 C 3.316406 -5.0625 3.738281 -4.953125 4.125 -4.734375 C 4.519531 -4.515625 4.828125 -4.207031 5.046875 -3.8125 C 5.273438 -3.414062 5.390625 -2.972656 5.390625 -2.484375 Z M 4.265625 -2.484375 C 4.265625 -2.785156 4.203125 -3.054688 4.078125 -3.296875 C 3.953125 -3.535156 3.78125 -3.71875 3.5625 -3.84375 C 3.351562 -3.976562 3.117188 -4.046875 2.859375 -4.046875 C 2.597656 -4.046875 2.359375 -3.976562 2.140625 -3.84375 C 1.929688 -3.71875 1.757812 -3.535156 1.625 -3.296875 C 1.5 -3.054688 1.4375 -2.785156 1.4375 -2.484375 C 1.4375 -2.179688 1.5 -1.910156 1.625 -1.671875 C 1.757812 -1.429688 1.929688 -1.25 2.140625 -1.125 C 2.359375 -1 2.597656 -0.9375 2.859375 -0.9375 C 3.117188 -0.9375 3.351562 -1 3.5625 -1.125 C 3.78125 -1.25 3.953125 -1.429688 4.078125 -1.671875 C 4.203125 -1.910156 4.265625 -2.179688 4.265625 -2.484375 Z M 4.265625 -2.484375 "></path></g></g></g><g fill="#ffffff" fill-opacity="1"><g transform="translate(236.949343, 212.491349)"><g><path d="M 4.296875 -4.96875 C 4.453125 -4.96875 4.582031 -4.914062 4.6875 -4.8125 C 4.800781 -4.707031 4.859375 -4.570312 4.859375 -4.40625 L 4.859375 -2.046875 C 4.859375 -1.378906 4.671875 -0.851562 4.296875 -0.46875 C 3.929688 -0.09375 3.40625 0.09375 2.71875 0.09375 C 2.039062 0.09375 1.519531 -0.09375 1.15625 -0.46875 C 0.789062 -0.851562 0.609375 -1.378906 0.609375 -2.046875 L 0.609375 -4.40625 C 0.609375 -4.570312 0.660156 -4.707031 0.765625 -4.8125 C 0.867188 -4.914062 1 -4.96875 1.15625 -4.96875 C 1.320312 -4.96875 1.457031 -4.914062 1.5625 -4.8125 C 1.664062 -4.707031 1.71875 -4.570312 1.71875 -4.40625 L 1.71875 -2.046875 C 1.71875 -1.671875 1.800781 -1.390625 1.96875 -1.203125 C 2.132812 -1.023438 2.382812 -0.9375 2.71875 -0.9375 C 3.0625 -0.9375 3.316406 -1.023438 3.484375 -1.203125 C 3.648438 -1.390625 3.734375 -1.671875 3.734375 -2.046875 L 3.734375 -4.40625 C 3.734375 -4.570312 3.785156 -4.707031 3.890625 -4.8125 C 3.992188 -4.914062 4.128906 -4.96875 4.296875 -4.96875 Z M 4.296875 -4.96875 "></path></g></g></g><g fill="#ffffff" fill-opacity="1"><g transform="translate(246.108576, 212.491349)"><g><path d="M 3.1875 -5.0625 C 3.375 -5.0625 3.53125 -5.007812 3.65625 -4.90625 C 3.78125 -4.800781 3.84375 -4.675781 3.84375 -4.53125 C 3.84375 -4.34375 3.789062 -4.195312 3.6875 -4.09375 C 3.59375 -4 3.476562 -3.953125 3.34375 -3.953125 C 3.25 -3.953125 3.144531 -3.976562 3.03125 -4.03125 C 3.007812 -4.03125 2.96875 -4.039062 2.90625 -4.0625 C 2.84375 -4.082031 2.773438 -4.09375 2.703125 -4.09375 C 2.535156 -4.09375 2.378906 -4.039062 2.234375 -3.9375 C 2.085938 -3.84375 1.960938 -3.691406 1.859375 -3.484375 C 1.765625 -3.285156 1.71875 -3.046875 1.71875 -2.765625 L 1.71875 -0.5625 C 1.71875 -0.40625 1.664062 -0.269531 1.5625 -0.15625 C 1.457031 -0.0507812 1.320312 0 1.15625 0 C 1 0 0.867188 -0.0507812 0.765625 -0.15625 C 0.660156 -0.269531 0.609375 -0.40625 0.609375 -0.5625 L 0.609375 -4.40625 C 0.609375 -4.570312 0.660156 -4.707031 0.765625 -4.8125 C 0.867188 -4.914062 1 -4.96875 1.15625 -4.96875 C 1.320312 -4.96875 1.457031 -4.914062 1.5625 -4.8125 C 1.664062 -4.707031 1.71875 -4.570312 1.71875 -4.40625 L 1.71875 -4.28125 C 1.863281 -4.539062 2.066406 -4.734375 2.328125 -4.859375 C 2.597656 -4.992188 2.882812 -5.0625 3.1875 -5.0625 Z M 3.1875 -5.0625 "></path></g></g></g><g fill="#ffffff" fill-opacity="1"><g transform="translate(253.845994, 212.491349)"><g></g></g></g><g fill="#ffffff" fill-opacity="1"><g transform="translate(260.152295, 212.491349)"><g><path d="M 3 -5.890625 C 2.78125 -5.890625 2.628906 -5.828125 2.546875 -5.703125 C 2.460938 -5.585938 2.421875 -5.457031 2.421875 -5.3125 L 2.421875 -4.875 L 3.265625 -4.875 C 3.410156 -4.875 3.53125 -4.828125 3.625 -4.734375 C 3.726562 -4.640625 3.78125 -4.519531 3.78125 -4.375 C 3.78125 -4.21875 3.726562 -4.09375 3.625 -4 C 3.53125 -3.90625 3.410156 -3.859375 3.265625 -3.859375 L 2.421875 -3.859375 L 2.421875 -0.5625 C 2.421875 -0.40625 2.363281 -0.269531 2.25 -0.15625 C 2.144531 -0.0507812 2.015625 0 1.859375 0 C 1.703125 0 1.566406 -0.0507812 1.453125 -0.15625 C 1.347656 -0.269531 1.296875 -0.40625 1.296875 -0.5625 L 1.296875 -3.859375 L 0.796875 -3.859375 C 0.648438 -3.859375 0.523438 -3.90625 0.421875 -4 C 0.328125 -4.09375 0.28125 -4.21875 0.28125 -4.375 C 0.28125 -4.519531 0.328125 -4.640625 0.421875 -4.734375 C 0.523438 -4.828125 0.648438 -4.875 0.796875 -4.875 L 1.296875 -4.875 L 1.296875 -5.3125 C 1.296875 -5.769531 1.457031 -6.144531 1.78125 -6.4375 C 2.101562 -6.726562 2.5625 -6.875 3.15625 -6.875 C 3.382812 -6.875 3.582031 -6.828125 3.75 -6.734375 C 3.925781 -6.640625 4.015625 -6.5 4.015625 -6.3125 C 4.015625 -6.164062 3.96875 -6.046875 3.875 -5.953125 C 3.789062 -5.859375 3.6875 -5.8125 3.5625 -5.8125 C 3.539062 -5.8125 3.507812 -5.8125 3.46875 -5.8125 C 3.4375 -5.820312 3.398438 -5.832031 3.359375 -5.84375 C 3.210938 -5.875 3.09375 -5.890625 3 -5.890625 Z M 3 -5.890625 "></path></g></g></g><g fill="#ffffff" fill-opacity="1"><g transform="translate(267.731728, 212.491349)"><g><path d="M 1.65625 -0.5625 C 1.65625 -0.40625 1.601562 -0.269531 1.5 -0.15625 C 1.394531 -0.0507812 1.257812 0 1.09375 0 C 0.9375 0 0.804688 -0.0507812 0.703125 -0.15625 C 0.597656 -0.269531 0.546875 -0.40625 0.546875 -0.5625 L 0.546875 -4.40625 C 0.546875 -4.570312 0.597656 -4.707031 0.703125 -4.8125 C 0.804688 -4.914062 0.9375 -4.96875 1.09375 -4.96875 C 1.257812 -4.96875 1.394531 -4.914062 1.5 -4.8125 C 1.601562 -4.707031 1.65625 -4.570312 1.65625 -4.40625 Z M 1.078125 -5.578125 C 0.867188 -5.578125 0.71875 -5.609375 0.625 -5.671875 C 0.539062 -5.742188 0.5 -5.867188 0.5 -6.046875 L 0.5 -6.21875 C 0.5 -6.394531 0.546875 -6.515625 0.640625 -6.578125 C 0.734375 -6.648438 0.882812 -6.6875 1.09375 -6.6875 C 1.3125 -6.6875 1.460938 -6.648438 1.546875 -6.578125 C 1.628906 -6.515625 1.671875 -6.394531 1.671875 -6.21875 L 1.671875 -6.046875 C 1.671875 -5.859375 1.625 -5.734375 1.53125 -5.671875 C 1.445312 -5.609375 1.296875 -5.578125 1.078125 -5.578125 Z M 1.078125 -5.578125 "></path></g></g></g><g fill="#ffffff" fill-opacity="1"><g transform="translate(273.629131, 212.491349)"><g><path d="M 1.8125 -0.5625 C 1.8125 -0.40625 1.753906 -0.269531 1.640625 -0.15625 C 1.535156 -0.0507812 1.40625 0 1.25 0 C 1.09375 0 0.960938 -0.0507812 0.859375 -0.15625 C 0.753906 -0.269531 0.703125 -0.40625 0.703125 -0.5625 L 0.703125 -6.3125 C 0.703125 -6.46875 0.753906 -6.597656 0.859375 -6.703125 C 0.960938 -6.816406 1.097656 -6.875 1.265625 -6.875 C 1.421875 -6.875 1.550781 -6.816406 1.65625 -6.703125 C 1.757812 -6.597656 1.8125 -6.46875 1.8125 -6.3125 Z M 1.8125 -0.5625 "></path></g></g></g><g fill="#ffffff" fill-opacity="1"><g transform="translate(279.842495, 212.491349)"><g><path d="M 5.0625 -2.609375 C 5.0625 -2.453125 5.003906 -2.328125 4.890625 -2.234375 C 4.773438 -2.140625 4.644531 -2.09375 4.5 -2.09375 L 1.4375 -2.09375 C 1.507812 -1.726562 1.675781 -1.441406 1.9375 -1.234375 C 2.207031 -1.035156 2.507812 -0.9375 2.84375 -0.9375 C 3.09375 -0.9375 3.289062 -0.957031 3.4375 -1 C 3.582031 -1.039062 3.695312 -1.085938 3.78125 -1.140625 C 3.863281 -1.203125 3.921875 -1.238281 3.953125 -1.25 C 4.066406 -1.3125 4.171875 -1.34375 4.265625 -1.34375 C 4.398438 -1.34375 4.507812 -1.296875 4.59375 -1.203125 C 4.6875 -1.109375 4.734375 -1 4.734375 -0.875 C 4.734375 -0.707031 4.648438 -0.554688 4.484375 -0.421875 C 4.304688 -0.273438 4.070312 -0.148438 3.78125 -0.046875 C 3.488281 0.046875 3.195312 0.09375 2.90625 0.09375 C 2.382812 0.09375 1.925781 -0.015625 1.53125 -0.234375 C 1.144531 -0.453125 0.847656 -0.75 0.640625 -1.125 C 0.429688 -1.507812 0.328125 -1.941406 0.328125 -2.421875 C 0.328125 -2.953125 0.4375 -3.414062 0.65625 -3.8125 C 0.882812 -4.21875 1.179688 -4.523438 1.546875 -4.734375 C 1.910156 -4.953125 2.300781 -5.0625 2.71875 -5.0625 C 3.125 -5.0625 3.507812 -4.945312 3.875 -4.71875 C 4.238281 -4.5 4.523438 -4.203125 4.734375 -3.828125 C 4.953125 -3.453125 5.0625 -3.046875 5.0625 -2.609375 Z M 2.71875 -4.046875 C 2 -4.046875 1.570312 -3.707031 1.4375 -3.03125 L 3.875 -3.03125 L 3.875 -3.09375 C 3.851562 -3.351562 3.726562 -3.578125 3.5 -3.765625 C 3.269531 -3.953125 3.007812 -4.046875 2.71875 -4.046875 Z M 2.71875 -4.046875 "></path></g></g></g><g fill="#ffffff" fill-opacity="1"><g transform="translate(288.936679, 212.491349)"><g><path d="M 0.3125 -0.765625 C 0.257812 -0.847656 0.234375 -0.941406 0.234375 -1.046875 C 0.234375 -1.210938 0.3125 -1.347656 0.46875 -1.453125 C 0.5625 -1.515625 0.65625 -1.546875 0.75 -1.546875 C 0.875 -1.546875 0.992188 -1.484375 1.109375 -1.359375 C 1.296875 -1.171875 1.488281 -1.03125 1.6875 -0.9375 C 1.894531 -0.84375 2.140625 -0.796875 2.421875 -0.796875 C 2.910156 -0.816406 3.15625 -1 3.15625 -1.34375 C 3.15625 -1.53125 3.070312 -1.664062 2.90625 -1.75 C 2.738281 -1.84375 2.484375 -1.9375 2.140625 -2.03125 C 1.773438 -2.132812 1.476562 -2.234375 1.25 -2.328125 C 1.03125 -2.429688 0.835938 -2.582031 0.671875 -2.78125 C 0.503906 -2.988281 0.421875 -3.257812 0.421875 -3.59375 C 0.421875 -3.894531 0.503906 -4.15625 0.671875 -4.375 C 0.847656 -4.59375 1.070312 -4.757812 1.34375 -4.875 C 1.625 -5 1.921875 -5.0625 2.234375 -5.0625 C 2.546875 -5.0625 2.859375 -5.003906 3.171875 -4.890625 C 3.492188 -4.773438 3.742188 -4.601562 3.921875 -4.375 C 4.003906 -4.269531 4.046875 -4.15625 4.046875 -4.03125 C 4.046875 -3.894531 3.988281 -3.78125 3.875 -3.6875 C 3.78125 -3.613281 3.675781 -3.578125 3.5625 -3.578125 C 3.425781 -3.578125 3.316406 -3.617188 3.234375 -3.703125 C 3.117188 -3.835938 2.972656 -3.945312 2.796875 -4.03125 C 2.617188 -4.113281 2.421875 -4.15625 2.203125 -4.15625 C 1.734375 -4.15625 1.5 -3.984375 1.5 -3.640625 C 1.5 -3.503906 1.539062 -3.394531 1.625 -3.3125 C 1.707031 -3.226562 1.816406 -3.160156 1.953125 -3.109375 C 2.085938 -3.066406 2.273438 -3.015625 2.515625 -2.953125 C 2.847656 -2.859375 3.125 -2.757812 3.34375 -2.65625 C 3.570312 -2.5625 3.765625 -2.410156 3.921875 -2.203125 C 4.078125 -1.992188 4.15625 -1.722656 4.15625 -1.390625 C 4.15625 -1.085938 4.0625 -0.820312 3.875 -0.59375 C 3.695312 -0.375 3.46875 -0.203125 3.1875 -0.078125 C 2.90625 0.0351562 2.617188 0.09375 2.328125 0.09375 C 1.910156 0.09375 1.523438 0.0234375 1.171875 -0.109375 C 0.828125 -0.242188 0.539062 -0.460938 0.3125 -0.765625 Z M 0.3125 -0.765625 "></path></g></g></g></svg>